<svg width="101" height="101" viewBox="0 0 101 101" fill="none" xmlns="http://www.w3.org/2000/svg">
<rect width="101" height="101" fill="#E5E5E5"/>
<path fill-rule="evenodd" clip-rule="evenodd" d="M76.5 50.7167C76.5 65.0757 64.8594 76.7167 50.5 76.7167C36.1406 76.7167 24.5 65.0757 24.5 50.7167C24.5 36.3573 36.1406 24.7167 50.5 24.7167C64.8594 24.7167 76.5 36.3573 76.5 50.7167ZM100.5 50.7167C100.5 78.3307 78.1142 100.717 50.5 100.717C22.8858 100.717 0.5 78.3307 0.5 50.7167C0.5 23.1025 22.8858 0.716713 50.5 0.716713C78.1142 0.716713 100.5 23.1025 100.5 50.7167ZM50.5 64.7167C58.232 64.7167 64.5 58.4487 64.5 50.7167C64.5 42.9847 58.232 36.7167 50.5 36.7167C42.768 36.7167 36.5 42.9847 36.5 50.7167C36.5 58.4487 42.768 64.7167 50.5 64.7167Z" fill="#8661C1" fill-opacity="0.96"/>
</svg>
