<svg width="323" height="149" viewBox="0 0 323 149" fill="none" xmlns="http://www.w3.org/2000/svg">
<path fill-rule="evenodd" clip-rule="evenodd" d="M13 23.9589C12.6703 23.9861 12.3368 24 12 24C5.37258 24 0 18.6274 0 12C0 5.37258 5.37258 0 12 0C12.3368 0 12.6703 0.0138713 13 0.0410738V4.50579e-06L259 0H311C317.627 0 323 5.37258 323 12C323 18.6274 317.627 24 311 24H263V133V137V138H262.959C262.451 144.16 257.291 149 251 149C244.709 149 239.549 144.16 239.041 138H239V137V133V24H13V23.9589ZM76 98C76 112.359 64.3594 124 50 124C35.6406 124 24 112.359 24 98C24 83.6406 35.6406 72 50 72C64.3594 72 76 83.6406 76 98ZM100 98C100 125.614 77.6142 148 50 148C22.3858 148 0 125.614 0 98C0 70.3858 22.3858 48 50 48C77.6142 48 100 70.3858 100 98ZM148 104V60V59H147.959C147.451 52.8405 142.291 48 136 48C129.709 48 124.549 52.8405 124.041 59H124V60V104C124 129.022 144.542 149 169.5 149C194.458 149 215 129.022 215 104V60C215 53.3726 209.627 48 203 48C196.373 48 191 53.3726 191 60V104C191 115.428 181.545 125 169.5 125C157.455 125 148 115.428 148 104ZM50 112C57.732 112 64 105.732 64 98C64 90.268 57.732 84 50 84C42.268 84 36 90.268 36 98C36 105.732 42.268 112 50 112Z" fill="#EEEEEE"/>
</svg>
